# xmcd
#
# Track frame offsets: 
#        150
#        15762
#        29730
#        45217
#        65270
#        81787
#        97050
#        115075
#        131375
#        148725
#        164705
#        178612
#        196125
#        211775
#        227737
#        245575
#
# Disc length: 3521 seconds
#
# Revision: 2
# Processed by: cddbd v1.5.2PL0 Copyright (c) Steve Scherf et al.
# Submitted via: ExactAudioCopy v0.95b2
#
DISCID=d10dbf10
DTITLE=鄭伊健 - LIFE II 發現
DYEAR=1996
DGENRE=(13)Pop
TTITLE0=1 發現
TTITLE1=2 你的我
TTITLE2=3 蒸發的我
TTITLE3=4 明日的主角是誰
TTITLE4=5 無限空間
TTITLE5=6 發現 (Senational Mix)
TTITLE6=鄭伊健 - 情路狂奔
TTITLE7=鄭伊健 - 如果天空要下雨
TTITLE8=鄭伊健 - 是你吧
TTITLE9=鄭伊健 - 無名
TTITLE10=鄭伊健 - 我是個問號
TTITLE11=鄭伊健 - 我的歌
TTITLE12=鄭伊健 - 今生愛你
TTITLE13=鄭伊健 - 友情歲月
TTITLE14=鄭伊健 - 吻感
TTITLE15=鄭伊健 - 只會因你唱
EXTD=
EXTT0=
EXTT1=
EXTT2=
EXTT3=
EXTT4=
EXTT5=
EXTT6=
EXTT7=
EXTT8=
EXTT9=
EXTT10=
EXTT11=
EXTT12=
EXTT13=
EXTT14=
EXTT15=
PLAYORDER=
